<svg width="250" height="250" viewBox="0 0 250 250" fill="none" xmlns="http://www.w3.org/2000/svg">
<path d="M125 171.667C150.667 171.667 171.667 150.667 171.667 125C171.667 99.3333 150.667 78.3333 125 78.3333C99.3333 78.3333 78.3333 99.3333 78.3333 125C78.3333 150.667 99.3333 171.667 125 171.667Z" stroke="#FCCD0F" stroke-width="7" stroke-linecap="round" stroke-linejoin="round"/>
<path d="M106.333 125H143.667" stroke="#FCCD0F" stroke-width="7" stroke-linecap="round" stroke-linejoin="round"/>
<path d="M125 143.667V106.333" stroke="#FCCD0F" stroke-width="7" stroke-linecap="round" stroke-linejoin="round"/>
<circle cx="125" cy="125" r="122.5" stroke="#FCCD0F" stroke-width="5" stroke-dasharray="10 10"/>
<path d="M77.3491 194.13V195.22H78.9791V194.13H77.3491ZM76.3591 190.62V199.88H77.6991V190.62H76.3591ZM70.7191 191.51V197.26H72.0491V191.51H70.7191ZM70.7191 196.52V197.62H71.5191C72.8791 197.62 74.3691 197.54 75.8991 197.22L75.7591 196.13C74.2691 196.43 72.8391 196.52 71.5191 196.52H70.7191ZM79.9083 191.39V195.86H84.3183V191.39H79.9083ZM83.0083 192.44V194.81H81.2183V192.44H83.0083ZM85.5983 190.63V197.38H86.9283V190.63H85.5983ZM86.5483 193.3V194.39H88.1583V193.3H86.5483ZM80.9583 198.67V199.73H87.2583V198.67H80.9583ZM80.9583 196.72V199.2H82.2883V196.72H80.9583ZM91.8175 191.24C90.3675 191.24 89.2575 192.19 89.2575 193.52C89.2575 194.86 90.3675 195.81 91.8175 195.81C93.2775 195.81 94.3675 194.86 94.3675 193.52C94.3675 192.19 93.2775 191.24 91.8175 191.24ZM91.8175 192.38C92.5275 192.38 93.0675 192.8 93.0675 193.52C93.0675 194.25 92.5275 194.67 91.8175 194.67C91.1075 194.67 90.5675 194.25 90.5675 193.52C90.5675 192.8 91.1075 192.38 91.8175 192.38ZM95.2375 190.62V199.91H96.5675V190.62H95.2375ZM89.0375 198.03C90.6375 198.03 92.8175 198.01 94.8275 197.61L94.7275 196.65C92.7775 196.94 90.5075 196.96 88.8775 196.96L89.0375 198.03ZM106.932 190.63V196.43H108.192V190.63H106.932ZM105.802 192.91V193.99H107.282V192.91H105.802ZM105.012 190.81V196.13H106.252V190.81H105.012ZM100.262 191.58V192.6H104.752V191.58H100.262ZM102.522 192.9C101.362 192.9 100.522 193.56 100.522 194.52C100.522 195.48 101.362 196.13 102.522 196.13C103.682 196.13 104.522 195.48 104.522 194.52C104.522 193.56 103.682 192.9 102.522 192.9ZM102.522 193.85C103.002 193.85 103.332 194.09 103.332 194.52C103.332 194.95 103.002 195.19 102.522 195.19C102.032 195.19 101.702 194.95 101.702 194.52C101.702 194.09 102.032 193.85 102.522 193.85ZM101.852 190.72V192.28H103.162V190.72H101.852ZM105.062 196.53C103.072 196.53 101.872 197.13 101.872 198.21C101.872 199.28 103.072 199.89 105.062 199.89C107.042 199.89 108.242 199.28 108.242 198.21C108.242 197.13 107.042 196.53 105.062 196.53ZM105.062 197.52C106.292 197.52 106.912 197.73 106.912 198.21C106.912 198.68 106.292 198.9 105.062 198.9C103.822 198.9 103.202 198.68 103.202 198.21C103.202 197.73 103.822 197.52 105.062 197.52ZM111.652 191.11V191.94C111.652 193.21 111.002 194.46 109.422 194.97L110.112 196.04C111.932 195.43 112.762 193.8 112.762 191.94V191.11H111.652ZM111.932 191.11V191.88C111.932 193.68 112.672 195.17 114.382 195.76L115.072 194.72C113.602 194.25 113.002 193.11 113.002 191.88V191.11H111.932ZM115.922 190.63V196.05H117.252V190.63H115.922ZM114.112 196.29C112.152 196.29 110.942 196.96 110.942 198.09C110.942 199.23 112.152 199.89 114.112 199.89C116.072 199.89 117.282 199.23 117.282 198.09C117.282 196.96 116.072 196.29 114.112 196.29ZM114.112 197.32C115.322 197.32 115.962 197.57 115.962 198.09C115.962 198.61 115.322 198.87 114.112 198.87C112.912 198.87 112.272 198.61 112.272 198.09C112.272 197.57 112.912 197.32 114.112 197.32ZM114.232 192.31V193.39H116.112V192.31H114.232ZM122.891 190.76C120.771 190.76 119.541 191.32 119.541 192.34C119.541 193.36 120.771 193.92 122.891 193.92C125.001 193.92 126.241 193.36 126.241 192.34C126.241 191.32 125.001 190.76 122.891 190.76ZM122.891 191.73C124.231 191.73 124.861 191.93 124.861 192.34C124.861 192.77 124.231 192.95 122.891 192.95C121.551 192.95 120.921 192.77 120.921 192.34C120.921 191.93 121.551 191.73 122.891 191.73ZM118.701 194.35V195.4H127.071V194.35H118.701ZM119.661 195.92V196.91H124.751V197.38H119.671V199.12H120.981V198.3H126.061V195.92H119.661ZM119.671 198.83V199.83H126.301V198.83H119.671ZM133.686 196.56V199.9H135.006V196.56H133.686ZM130.176 196.17V197.25H138.546V196.17H130.176ZM133.676 192.29V192.51C133.676 193.37 132.686 194.42 130.596 194.66L131.056 195.7C133.506 195.41 134.846 194.06 134.846 192.51V192.29H133.676ZM133.846 192.29V192.51C133.846 194.02 135.186 195.42 137.626 195.7L138.096 194.66C136.016 194.42 135.016 193.35 135.016 192.51V192.29H133.846ZM130.926 191.69V192.74H137.786V191.69H130.926ZM133.686 190.65V192.05H135.006V190.65H133.686ZM145.285 190.62V199.88H146.625V190.62H145.285ZM146.275 194.16V195.25H147.905V194.16H146.275ZM142.855 191.58V191.81C142.855 194.32 141.705 196.02 139.275 197.28L140.015 198.29C143.095 196.74 144.155 194.36 144.155 191.58H142.855ZM139.785 191.58V192.65H143.535V191.58H139.785ZM148.554 192.02V193.08H152.984V192.02H148.554ZM150.784 193.49C149.614 193.49 148.754 194.4 148.754 195.7C148.754 196.99 149.614 197.9 150.784 197.9C151.964 197.9 152.814 196.99 152.814 195.7C152.814 194.4 151.964 193.49 150.784 193.49ZM150.784 194.6C151.284 194.6 151.644 195 151.644 195.7C151.644 196.4 151.284 196.79 150.784 196.79C150.284 196.79 149.934 196.4 149.934 195.7C149.934 195 150.284 194.6 150.784 194.6ZM155.254 190.63V199.89H156.524V190.63H155.254ZM154.144 194.39V195.46H155.674V194.39H154.144ZM153.314 190.8V199.5H154.554V190.8H153.314ZM150.134 190.88V192.69H151.444V190.88H150.134ZM157.773 197.74V198.82H166.153V197.74H157.773ZM161.283 195.76V198H162.613V195.76H161.283ZM158.653 191.22V196.04H165.243V191.22H163.923V192.64H159.973V191.22H158.653ZM159.973 193.68H163.923V194.98H159.973V193.68ZM170.613 193.74V194.82H172.143V193.74H170.613ZM168.633 191.43V192.99C168.633 194.56 168.153 196.21 166.793 197.05L167.593 198.05C169.073 197.14 169.653 195.09 169.653 192.99V191.43H168.633ZM168.923 191.43V192.93C168.923 194.93 169.383 196.93 170.853 197.84L171.573 196.8C170.313 195.98 169.923 194.44 169.923 192.93V191.43H168.923ZM173.653 190.63V199.89H174.923V190.63H173.653ZM171.773 190.77V199.47H173.013V190.77H171.773ZM178.012 195.33V197.93H179.332V195.33H178.012ZM181.372 195.33V197.93H182.702V195.33H181.372ZM176.172 197.74V198.82H184.552V197.74H176.172ZM180.352 191.08C178.352 191.08 176.892 192.06 176.892 193.57C176.892 195.08 178.352 196.05 180.352 196.05C182.342 196.05 183.812 195.08 183.812 193.57C183.812 192.06 182.342 191.08 180.352 191.08ZM180.352 192.12C181.642 192.12 182.502 192.65 182.502 193.57C182.502 194.48 181.642 195.02 180.352 195.02C179.062 195.02 178.202 194.48 178.202 193.57C178.202 192.65 179.062 192.12 180.352 192.12Z" fill="white"/>
</svg>
