<svg width="11" height="15" viewBox="0 0 11 15" fill="none" xmlns="http://www.w3.org/2000/svg">
<path fill-rule="evenodd" clip-rule="evenodd" d="M0.523256 7.43018C0.812242 7.43018 1.04651 7.66445 1.04651 7.95343C1.04651 9.7412 2.73114 11.1627 5.05814 11.1627C7.38514 11.1627 9.06977 9.7412 9.06977 7.95343C9.06977 7.66445 9.30404 7.43018 9.59302 7.43018C9.88201 7.43018 10.1163 7.66445 10.1163 7.95343V10.5348C10.1163 13.067 7.78055 14.9999 5.05814 14.9999C2.33573 14.9999 0 13.067 0 10.5348V7.95343C0 7.66445 0.23427 7.43018 0.523256 7.43018ZM1.04731 10.6028C1.08956 12.3957 2.79973 13.9534 5.05814 13.9534C7.31655 13.9534 9.02672 12.3957 9.06897 10.6028C8.12513 11.6175 6.64529 12.2092 5.05814 12.2092C3.47099 12.2092 1.99115 11.6175 1.04731 10.6028Z" fill="white"/>
<path fill-rule="evenodd" clip-rule="evenodd" d="M5.05814 1.04651C3.92431 1.04651 2.91749 1.44314 2.19293 2.0756L2.19268 2.07581C1.47474 2.70171 1.04651 3.54756 1.04651 4.46512C1.04651 5.00197 1.19344 5.49384 1.45114 5.91552L1.45177 5.91655C2.08383 6.95621 3.42774 7.67442 5.05814 7.67442C6.68854 7.67442 8.03245 6.95621 8.66451 5.91655L8.66514 5.91552C8.92283 5.49384 9.06977 5.00197 9.06977 4.46512C9.06977 3.54862 8.64243 2.70243 7.92346 2.06872C7.19822 1.44261 6.19114 1.04651 5.05814 1.04651ZM1.50498 1.28698C2.42691 0.482357 3.68046 0 5.05814 0C6.43583 0 7.68849 0.482314 8.60963 1.27856L8.61321 1.28165L8.6132 1.28167C9.52572 2.085 10.1163 3.20562 10.1163 4.46512C10.1163 5.19782 9.91449 5.87785 9.55842 6.46071C8.69736 7.87655 6.97169 8.72093 5.05814 8.72093C3.14462 8.72093 1.41898 7.87658 0.557902 6.46079C0.201807 5.87791 0 5.19785 0 4.46512C0 3.20604 0.590264 2.08453 1.50474 1.28719" fill="white"/>
<path fill-rule="evenodd" clip-rule="evenodd" d="M5.05814 1.04651C2.77125 1.04651 1.04651 2.64378 1.04651 4.46512V7.95349C1.04651 9.74126 2.73114 11.1628 5.05814 11.1628C7.38514 11.1628 9.06977 9.74126 9.06977 7.95349V4.46512C9.06977 3.54862 8.64243 2.70243 7.92346 2.06872C7.19822 1.44261 6.19114 1.04651 5.05814 1.04651ZM0 4.46512C0 1.93297 2.33573 0 5.05814 0C6.43583 0 7.68849 0.482314 8.60963 1.27856L8.61321 1.28165L8.6132 1.28167C9.52572 2.085 10.1163 3.20562 10.1163 4.46512V7.95349C10.1163 10.5192 7.74044 12.2093 5.05814 12.2093C2.37584 12.2093 0 10.5192 0 7.95349V4.46512Z" fill="white"/>
</svg>
