<svg width="45" height="45" viewBox="0 0 45 45" fill="none" xmlns="http://www.w3.org/2000/svg">
<path fill-rule="evenodd" clip-rule="evenodd" d="M18.75 43.125H9.375C6.2684 43.125 3.75 40.6066 3.75 37.5V7.5C3.75 4.3934 6.2684 1.875 9.375 1.875H18.75C19.7855 1.875 20.625 2.71447 20.625 3.75C20.625 4.78553 19.7855 5.625 18.75 5.625H9.375C8.33947 5.625 7.5 6.46447 7.5 7.5V37.5C7.5 38.5355 8.33947 39.375 9.375 39.375H18.75C19.7855 39.375 20.625 40.2145 20.625 41.25C20.625 42.2855 19.7855 43.125 18.75 43.125ZM25.7008 28.6742C26.4331 29.4064 26.4331 30.5936 25.7008 31.3258C24.9686 32.0581 23.7814 32.0581 23.0492 31.3258L15.5503 23.827C15.5465 23.8232 15.5427 23.8194 15.539 23.8155C15.3643 23.6382 15.232 23.4347 15.1423 23.2177C15.0506 22.9966 15 22.7542 15 22.5C15 22.2458 15.0506 22.0034 15.1423 21.7823C15.232 21.5653 15.3643 21.3618 15.539 21.1845C15.5427 21.1806 15.5465 21.1768 15.5503 21.173L23.0492 13.6742C23.7814 12.9419 24.9686 12.9419 25.7008 13.6742C26.4331 14.4064 26.4331 15.5936 25.7008 16.3258L21.4017 20.625H39.375C40.4105 20.625 41.25 21.4645 41.25 22.5C41.25 23.5355 40.4105 24.375 39.375 24.375H21.4017L25.7008 28.6742Z" fill="#E3F4FD"/>
<mask id="mask0_272_4104" style="mask-type:luminance" maskUnits="userSpaceOnUse" x="3" y="1" width="39" height="43">
<path fill-rule="evenodd" clip-rule="evenodd" d="M18.75 43.125H9.375C6.2684 43.125 3.75 40.6066 3.75 37.5V7.5C3.75 4.3934 6.2684 1.875 9.375 1.875H18.75C19.7855 1.875 20.625 2.71447 20.625 3.75C20.625 4.78553 19.7855 5.625 18.75 5.625H9.375C8.33947 5.625 7.5 6.46447 7.5 7.5V37.5C7.5 38.5355 8.33947 39.375 9.375 39.375H18.75C19.7855 39.375 20.625 40.2145 20.625 41.25C20.625 42.2855 19.7855 43.125 18.75 43.125ZM25.7008 28.6742C26.4331 29.4064 26.4331 30.5936 25.7008 31.3258C24.9686 32.0581 23.7814 32.0581 23.0492 31.3258L15.5503 23.827C15.5465 23.8232 15.5427 23.8194 15.539 23.8155C15.3643 23.6382 15.232 23.4347 15.1423 23.2177C15.0506 22.9966 15 22.7542 15 22.5C15 22.2458 15.0506 22.0034 15.1423 21.7823C15.232 21.5653 15.3643 21.3618 15.539 21.1845C15.5427 21.1806 15.5465 21.1768 15.5503 21.173L23.0492 13.6742C23.7814 12.9419 24.9686 12.9419 25.7008 13.6742C26.4331 14.4064 26.4331 15.5936 25.7008 16.3258L21.4017 20.625H39.375C40.4105 20.625 41.25 21.4645 41.25 22.5C41.25 23.5355 40.4105 24.375 39.375 24.375H21.4017L25.7008 28.6742Z" fill="white"/>
</mask>
<g mask="url(#mask0_272_4104)">
</g>
</svg>
