<svg width="16" height="16" viewBox="0 0 16 16" fill="none" xmlns="http://www.w3.org/2000/svg">
<rect opacity="0.01" width="16" height="16" fill="white"/>
<path fill-rule="evenodd" clip-rule="evenodd" d="M8.07473 4.66675C7.83621 4.66802 7.60955 4.69667 7.3977 4.7635C7.19399 4.82779 7.01103 4.92009 6.85547 5.03721C6.6977 5.15625 6.57103 5.3001 6.47844 5.46306C6.38214 5.63238 6.33325 5.81824 6.33325 6.01684C6.33325 6.28864 6.53918 6.46878 6.86288 6.4777C7.0051 6.4777 7.13177 6.44078 7.23918 6.36758C7.36214 6.28355 7.43103 6.1607 7.44066 6.00921C7.44362 5.94619 7.45918 5.89145 7.48733 5.8418C7.51547 5.79215 7.55103 5.75268 7.59622 5.72085C7.64733 5.68457 7.70881 5.65593 7.78066 5.63492C7.85399 5.61328 7.93696 5.60182 8.02584 5.60182C8.20659 5.60182 8.34362 5.63874 8.44288 5.71449C8.53103 5.78196 8.57399 5.89145 8.57399 6.04931C8.57399 6.13142 8.56659 6.2008 8.55177 6.25682C8.53918 6.30647 8.51918 6.35166 8.48955 6.39686C8.45696 6.44587 8.41103 6.49807 8.35325 6.55217C8.28436 6.61773 8.19844 6.69412 8.09622 6.7826C7.84214 6.99838 7.64955 7.23263 7.52436 7.47897C7.39844 7.72722 7.33473 7.95637 7.33473 8.16006C7.33473 8.33066 7.39473 8.46178 7.51325 8.54963C7.61621 8.62601 7.74362 8.66675 7.8814 8.66675C8.21325 8.66675 8.42807 8.46751 8.42807 8.16006C8.42807 8.07222 8.43399 7.9952 8.44807 7.93091C8.45992 7.87744 8.48288 7.82206 8.5177 7.76605C8.55473 7.7043 8.61177 7.63556 8.68659 7.55981C8.77177 7.47451 8.8814 7.37267 9.01696 7.25427C9.24733 7.04994 9.40733 6.86407 9.50584 6.68521C9.60659 6.50189 9.6614 6.30329 9.66659 6.09068C9.66659 5.6432 9.51547 5.28864 9.2177 5.03658C8.92733 4.79151 8.54214 4.66675 8.07473 4.66675Z" fill="white"/>
<path fill-rule="evenodd" clip-rule="evenodd" d="M8.00008 15.3334C3.94999 15.3334 0.666748 12.0502 0.666748 8.00008C0.666748 3.94999 3.94999 0.666748 8.00008 0.666748C12.0502 0.666748 15.3334 3.94999 15.3334 8.00008C15.3334 12.0502 12.0502 15.3334 8.00008 15.3334ZM8.00024 14C11.314 14 14.0002 11.3137 14.0002 8C14.0002 4.68629 11.314 2 8.00024 2C4.68654 2 2.00024 4.68629 2.00024 8C2.00024 11.3137 4.68654 14 8.00024 14ZM8.47165 9.5286C8.732 9.78895 8.732 10.2111 8.47165 10.4714C8.2113 10.7318 7.78919 10.7318 7.52884 10.4714C7.26849 10.2111 7.26849 9.78895 7.52884 9.5286C7.78919 9.26825 8.2113 9.26825 8.47165 9.5286Z" fill="white"/>
<mask id="mask0_302_5582" style="mask-type:luminance" maskUnits="userSpaceOnUse" x="0" y="0" width="16" height="16">
<path fill-rule="evenodd" clip-rule="evenodd" d="M8.00008 15.3334C3.94999 15.3334 0.666748 12.0502 0.666748 8.00008C0.666748 3.94999 3.94999 0.666748 8.00008 0.666748C12.0502 0.666748 15.3334 3.94999 15.3334 8.00008C15.3334 12.0502 12.0502 15.3334 8.00008 15.3334ZM8.00024 14C11.314 14 14.0002 11.3137 14.0002 8C14.0002 4.68629 11.314 2 8.00024 2C4.68654 2 2.00024 4.68629 2.00024 8C2.00024 11.3137 4.68654 14 8.00024 14ZM8.47165 9.5286C8.732 9.78895 8.732 10.2111 8.47165 10.4714C8.2113 10.7318 7.78919 10.7318 7.52884 10.4714C7.26849 10.2111 7.26849 9.78895 7.52884 9.5286C7.78919 9.26825 8.2113 9.26825 8.47165 9.5286Z" fill="white"/>
</mask>
<g mask="url(#mask0_302_5582)">
</g>
</svg>
