<svg width="20" height="23" viewBox="0 0 20 23" fill="none" xmlns="http://www.w3.org/2000/svg">
<path d="M8.5447 0.3976C9.07483 -0.132533 9.93577 -0.132533 10.4659 0.3976L18.6088 8.54046C19.1389 9.07059 19.1389 9.93153 18.6088 10.4617C18.0786 10.9918 17.2177 10.9918 16.6876 10.4617L9.50318 3.27729L2.31881 10.4574C1.78867 10.9876 0.927734 10.9876 0.3976 10.4574C-0.132533 9.92729 -0.132533 9.06635 0.3976 8.53622L8.54046 0.393359L8.5447 0.3976Z" fill="#394F7D"/>
<path d="M8.5447 0.3976C9.07483 -0.132533 9.93577 -0.132533 10.4659 0.3976L18.6088 8.54046C19.1389 9.07059 19.1389 9.93153 18.6088 10.4617C18.0786 10.9918 17.2177 10.9918 16.6876 10.4617L9.50318 3.27729L2.31881 10.4574C1.78867 10.9876 0.927734 10.9876 0.3976 10.4574C-0.132533 9.92729 -0.132533 9.06635 0.3976 8.53622L8.54046 0.393359L8.5447 0.3976Z" fill="#394F7D"/>
<path d="M8.5447 12.3976C9.07483 11.8675 9.93577 11.8675 10.4659 12.3976L18.6088 20.5405C19.1389 21.0706 19.1389 21.9315 18.6088 22.4617C18.0786 22.9918 17.2177 22.9918 16.6876 22.4617L9.50318 15.2773L2.31881 22.4574C1.78867 22.9876 0.927734 22.9876 0.3976 22.4574C-0.132533 21.9273 -0.132533 21.0664 0.3976 20.5362L8.54046 12.3934L8.5447 12.3976Z" fill="#394F7D"/>
<path d="M8.5447 12.3976C9.07483 11.8675 9.93577 11.8675 10.4659 12.3976L18.6088 20.5405C19.1389 21.0706 19.1389 21.9315 18.6088 22.4617C18.0786 22.9918 17.2177 22.9918 16.6876 22.4617L9.50318 15.2773L2.31881 22.4574C1.78867 22.9876 0.927734 22.9876 0.3976 22.4574C-0.132533 21.9273 -0.132533 21.0664 0.3976 20.5362L8.54046 12.3934L8.5447 12.3976Z" fill="#394F7D"/>
</svg>
