<svg width="23" height="24" viewBox="0 0 23 24" fill="none" xmlns="http://www.w3.org/2000/svg">
<path fill-rule="evenodd" clip-rule="evenodd" d="M11.25 2.75C6.14137 2.75 2 6.89137 2 12C2 17.1086 6.14137 21.25 11.25 21.25C16.3586 21.25 20.5 17.1086 20.5 12C20.5 6.89137 16.3586 2.75 11.25 2.75ZM0.5 12C0.5 6.06294 5.31294 1.25 11.25 1.25C17.1871 1.25 22 6.06294 22 12C22 17.9371 17.1871 22.75 11.25 22.75C5.31294 22.75 0.5 17.9371 0.5 12Z" fill="#FCCD0F" stroke="#FCCD0F" stroke-linecap="round" stroke-linejoin="round"/>
<path fill-rule="evenodd" clip-rule="evenodd" d="M14.7803 8.46967C15.0732 8.76256 15.0732 9.23744 14.7803 9.53033L8.78033 15.5303C8.48744 15.8232 8.01256 15.8232 7.71967 15.5303C7.42678 15.2374 7.42678 14.7626 7.71967 14.4697L13.7197 8.46967C14.0126 8.17678 14.4874 8.17678 14.7803 8.46967Z" fill="#FCCD0F" stroke="#FCCD0F" stroke-linecap="round" stroke-linejoin="round"/>
<path fill-rule="evenodd" clip-rule="evenodd" d="M12.7446 14.5C12.7446 13.9477 13.1923 13.5 13.7446 13.5H13.7536C14.3059 13.5 14.7536 13.9477 14.7536 14.5C14.7536 15.0523 14.3059 15.5 13.7536 15.5H13.7446C13.1923 15.5 12.7446 15.0523 12.7446 14.5Z" fill="#FCCD0F" stroke="#FCCD0F" stroke-linecap="round" stroke-linejoin="round"/>
<path fill-rule="evenodd" clip-rule="evenodd" d="M7.74463 9.5C7.74463 8.94772 8.19234 8.5 8.74463 8.5H8.75361C9.3059 8.5 9.75361 8.94772 9.75361 9.5C9.75361 10.0523 9.3059 10.5 8.75361 10.5H8.74463C8.19234 10.5 7.74463 10.0523 7.74463 9.5Z" fill="#FCCD0F" stroke="#FCCD0F" stroke-linecap="round" stroke-linejoin="round"/>
</svg>
