<svg width="45" height="45" viewBox="0 0 45 45" fill="none" xmlns="http://www.w3.org/2000/svg">
<path fill-rule="evenodd" clip-rule="evenodd" d="M28.4214 14.6528C29.7806 16.025 31.666 16.875 33.75 16.875C37.8921 16.875 41.25 13.5171 41.25 9.375C41.25 5.23286 37.8921 1.875 33.75 1.875C29.6079 1.875 26.25 5.23286 26.25 9.375C26.25 10.0819 26.3478 10.766 26.5306 11.4144L16.5786 17.2222C15.2194 15.85 13.334 15 11.25 15C7.10786 15 3.75 18.3579 3.75 22.5C3.75 26.6421 7.10786 30 11.25 30C13.3344 30 15.2201 29.1497 16.5794 27.7771L26.533 33.5773C26.3486 34.2282 26.25 34.9151 26.25 35.625C26.25 39.7671 29.6079 43.125 33.75 43.125C37.8921 43.125 41.25 39.7671 41.25 35.625C41.25 31.4829 37.8921 28.125 33.75 28.125C31.6691 28.125 29.7862 28.9724 28.4275 30.341L18.4697 24.5384C18.6523 23.8902 18.75 23.2065 18.75 22.5C18.75 21.7931 18.6522 21.109 18.4694 20.4606L28.4214 14.6528ZM30.5631 11.3523C31.2248 12.4165 32.4046 13.125 33.75 13.125C35.8211 13.125 37.5 11.4461 37.5 9.375C37.5 7.30393 35.8211 5.625 33.75 5.625C31.6789 5.625 30 7.30393 30 9.375C30 10.0262 30.166 10.6386 30.458 11.1723C30.4771 11.2012 30.4955 11.2309 30.5132 11.2612C30.5307 11.2913 30.5474 11.3217 30.5631 11.3523ZM14.4369 20.5227C14.4526 20.5533 14.4693 20.5837 14.4868 20.6138C14.5045 20.6441 14.5229 20.6738 14.542 20.7027C14.834 21.2364 15 21.8488 15 22.5C15 23.1512 14.834 23.7636 14.542 24.2973C14.5227 24.3266 14.5041 24.3565 14.4862 24.3872C14.4689 24.417 14.4525 24.447 14.4369 24.4773C13.7753 25.5415 12.5954 26.25 11.25 26.25C9.17893 26.25 7.5 24.5711 7.5 22.5C7.5 20.4289 9.17893 18.75 11.25 18.75C12.5954 18.75 13.7753 19.4585 14.4369 20.5227ZM30.5325 33.7378C30.493 33.8056 30.4499 33.8699 30.4036 33.9308C30.1455 34.4397 30 35.0154 30 35.625C30 37.6961 31.6789 39.375 33.75 39.375C35.8211 39.375 37.5 37.6961 37.5 35.625C37.5 33.5539 35.8211 31.875 33.75 31.875C32.4509 31.875 31.3061 32.5356 30.6332 33.5392C30.6039 33.6065 30.5704 33.6728 30.5325 33.7378Z" fill="#E3F4FD"/>
<mask id="mask0_272_4116" style="mask-type:luminance" maskUnits="userSpaceOnUse" x="3" y="1" width="39" height="43">
<path fill-rule="evenodd" clip-rule="evenodd" d="M28.4214 14.6528C29.7806 16.025 31.666 16.875 33.75 16.875C37.8921 16.875 41.25 13.5171 41.25 9.375C41.25 5.23286 37.8921 1.875 33.75 1.875C29.6079 1.875 26.25 5.23286 26.25 9.375C26.25 10.0819 26.3478 10.766 26.5306 11.4144L16.5786 17.2222C15.2194 15.85 13.334 15 11.25 15C7.10786 15 3.75 18.3579 3.75 22.5C3.75 26.6421 7.10786 30 11.25 30C13.3344 30 15.2201 29.1497 16.5794 27.7771L26.533 33.5773C26.3486 34.2282 26.25 34.9151 26.25 35.625C26.25 39.7671 29.6079 43.125 33.75 43.125C37.8921 43.125 41.25 39.7671 41.25 35.625C41.25 31.4829 37.8921 28.125 33.75 28.125C31.6691 28.125 29.7862 28.9724 28.4275 30.341L18.4697 24.5384C18.6523 23.8902 18.75 23.2065 18.75 22.5C18.75 21.7931 18.6522 21.109 18.4694 20.4606L28.4214 14.6528ZM30.5631 11.3523C31.2248 12.4165 32.4046 13.125 33.75 13.125C35.8211 13.125 37.5 11.4461 37.5 9.375C37.5 7.30393 35.8211 5.625 33.75 5.625C31.6789 5.625 30 7.30393 30 9.375C30 10.0262 30.166 10.6386 30.458 11.1723C30.4771 11.2012 30.4955 11.2309 30.5132 11.2612C30.5307 11.2913 30.5474 11.3217 30.5631 11.3523ZM14.4369 20.5227C14.4526 20.5533 14.4693 20.5837 14.4868 20.6138C14.5045 20.6441 14.5229 20.6738 14.542 20.7027C14.834 21.2364 15 21.8488 15 22.5C15 23.1512 14.834 23.7636 14.542 24.2973C14.5227 24.3266 14.5041 24.3565 14.4862 24.3872C14.4689 24.417 14.4525 24.447 14.4369 24.4773C13.7753 25.5415 12.5954 26.25 11.25 26.25C9.17893 26.25 7.5 24.5711 7.5 22.5C7.5 20.4289 9.17893 18.75 11.25 18.75C12.5954 18.75 13.7753 19.4585 14.4369 20.5227ZM30.5325 33.7378C30.493 33.8056 30.4499 33.8699 30.4036 33.9308C30.1455 34.4397 30 35.0154 30 35.625C30 37.6961 31.6789 39.375 33.75 39.375C35.8211 39.375 37.5 37.6961 37.5 35.625C37.5 33.5539 35.8211 31.875 33.75 31.875C32.4509 31.875 31.3061 32.5356 30.6332 33.5392C30.6039 33.6065 30.5704 33.6728 30.5325 33.7378Z" fill="white"/>
</mask>
<g mask="url(#mask0_272_4116)">
</g>
</svg>
