<svg width="42" height="42" viewBox="0 0 42 42" fill="none" xmlns="http://www.w3.org/2000/svg">
<path d="M15.75 38.5H26.25C35 38.5 38.5 35 38.5 26.25V15.75C38.5 7 35 3.5 26.25 3.5H15.75C7 3.5 3.5 7 3.5 15.75V26.25C3.5 35 7 38.5 15.75 38.5Z" stroke="#E3F4FD" stroke-width="2.625" stroke-linecap="round" stroke-linejoin="round"/>
<path d="M21 27.125C24.3827 27.125 27.125 24.3827 27.125 21C27.125 17.6173 24.3827 14.875 21 14.875C17.6173 14.875 14.875 17.6173 14.875 21C14.875 24.3827 17.6173 27.125 21 27.125Z" stroke="#E3F4FD" stroke-width="2.625" stroke-linecap="round" stroke-linejoin="round"/>
<path d="M30.8632 12.25H30.8834" stroke="#E3F4FD" stroke-width="3.5" stroke-linecap="round" stroke-linejoin="round"/>
</svg>
