<svg width="43" height="42" viewBox="0 0 43 42" fill="none" xmlns="http://www.w3.org/2000/svg">
<path fill-rule="evenodd" clip-rule="evenodd" d="M39.2448 3.838C40.5661 2.90598 42.3364 4.11108 41.9538 5.68212C41.3544 8.14357 40.1528 10.4123 38.463 12.2873C38.489 12.5708 38.5026 12.8561 38.5035 13.143C38.5035 33.8971 18.4729 44.5585 0.903636 34.7978C-0.707557 33.9027 -0.0186181 31.4462 1.82306 31.5194C4.77461 31.6368 7.69642 31.05 10.3533 29.8262C6.49604 27.4487 4.02618 24.301 2.81452 20.5774C1.56349 16.7328 1.7461 12.6925 2.78978 8.85549C3.10548 7.6948 3.42637 6.82024 3.65434 6.3073C4.20677 5.06434 5.90392 4.89918 6.68564 6.0123C9.61091 10.1777 14.2362 12.778 19.253 13.1544C19.2261 9.15648 21.6837 5.55814 25.4231 4.13088C28.8048 2.84016 32.5878 3.57194 35.2359 5.94186C36.6571 5.41946 38.0051 4.71248 39.2448 3.838ZM35.2631 9.62122C34.604 9.81969 33.8898 9.61334 33.438 9.09396C31.7611 7.16573 29.0586 6.48955 26.6712 7.40079C24.2837 8.31203 22.7191 10.6169 22.7535 13.1955V14.9455C22.7535 15.8944 21.9974 16.6704 21.0489 16.695C15.3426 16.8429 9.89092 14.5966 5.96062 10.5937C5.26931 13.5777 5.21876 16.6548 6.14275 19.4944C7.32755 23.1355 10.0398 26.0913 14.7143 28.1689C15.9686 28.7264 16.1221 30.4451 14.9864 31.216C13.0279 32.5453 10.8821 33.5431 8.63451 34.1846C22.073 37.72 35.0035 28.7989 35.0035 13.1488C35.0023 12.7697 34.9658 12.3915 34.8946 12.0191C34.785 11.4453 34.9688 10.8547 35.3847 10.4445C35.7745 10.0601 36.1356 9.65032 36.466 9.21866C36.0696 9.36489 35.6684 9.49916 35.2631 9.62122Z" fill="#E3F4FD"/>
<mask id="mask0_51_7219" style="mask-type:luminance" maskUnits="userSpaceOnUse" x="0" y="3" width="43" height="36">
<path fill-rule="evenodd" clip-rule="evenodd" d="M39.2448 3.838C40.5661 2.90598 42.3364 4.11108 41.9538 5.68212C41.3544 8.14357 40.1528 10.4123 38.463 12.2873C38.489 12.5708 38.5026 12.8561 38.5035 13.143C38.5035 33.8971 18.4729 44.5585 0.903636 34.7978C-0.707557 33.9027 -0.0186181 31.4462 1.82306 31.5194C4.77461 31.6368 7.69642 31.05 10.3533 29.8262C6.49604 27.4487 4.02618 24.301 2.81452 20.5774C1.56349 16.7328 1.7461 12.6925 2.78978 8.85549C3.10548 7.6948 3.42637 6.82024 3.65434 6.3073C4.20677 5.06434 5.90392 4.89918 6.68564 6.0123C9.61091 10.1777 14.2362 12.778 19.253 13.1544C19.2261 9.15648 21.6837 5.55814 25.4231 4.13088C28.8048 2.84016 32.5878 3.57194 35.2359 5.94186C36.6571 5.41946 38.0051 4.71248 39.2448 3.838ZM35.2631 9.62122C34.604 9.81969 33.8898 9.61334 33.438 9.09396C31.7611 7.16573 29.0586 6.48955 26.6712 7.40079C24.2837 8.31203 22.7191 10.6169 22.7535 13.1955V14.9455C22.7535 15.8944 21.9974 16.6704 21.0489 16.695C15.3426 16.8429 9.89092 14.5966 5.96062 10.5937C5.26931 13.5777 5.21876 16.6548 6.14275 19.4944C7.32755 23.1355 10.0398 26.0913 14.7143 28.1689C15.9686 28.7264 16.1221 30.4451 14.9864 31.216C13.0279 32.5453 10.8821 33.5431 8.63451 34.1846C22.073 37.72 35.0035 28.7989 35.0035 13.1488C35.0023 12.7697 34.9658 12.3915 34.8946 12.0191C34.785 11.4453 34.9688 10.8547 35.3847 10.4445C35.7745 10.0601 36.1356 9.65032 36.466 9.21866C36.0696 9.36489 35.6684 9.49916 35.2631 9.62122Z" fill="white"/>
</mask>
<g mask="url(#mask0_51_7219)">
</g>
</svg>
